<?xml version="1.0" standalone="no"?>
<!DOCTYPE svg PUBLIC "-//W3C//DTD SVG 20010904//EN"
 "http://www.w3.org/TR/2001/REC-SVG-20010904/DTD/svg10.dtd">
<svg version="1.0" xmlns="http://www.w3.org/2000/svg"
 width="512.000000pt" height="512.000000pt" viewBox="0 0 512.000000 512.000000"
 preserveAspectRatio="xMidYMid meet">

<g transform="translate(0.000000,512.000000) scale(0.100000,-0.100000)"
fill="#000000" stroke="none">
<path d="M2332 4820 c-556 -54 -1053 -281 -1446 -660 -363 -351 -590 -787
-673 -1295 -25 -154 -25 -506 0 -660 80 -488 280 -890 617 -1239 198 -205 396
-349 655 -476 241 -119 454 -185 725 -227 160 -24 510 -24 670 0 686 105 1270
471 1645 1032 37 55 100 168 141 250 342 695 303 1511 -104 2169 -367 593
-979 989 -1686 1091 -127 19 -422 27 -544 15z m533 -135 c210 -32 416 -97 614
-196 669 -330 1113 -979 1192 -1738 15 -142 6 -440 -16 -571 -91 -535 -354
-998 -760 -1338 -705 -591 -1715 -648 -2483 -142 -920 606 -1242 1809 -752
2807 329 672 965 1117 1700 1192 122 13 377 5 505 -14z"/>
<path d="M2335 4660 c-978 -110 -1754 -908 -1855 -1909 -65 -653 164 -1297
626 -1756 287 -285 650 -481 1036 -560 665 -135 1331 56 1831 525 347 325 576
769 647 1252 25 166 27 445 5 613 -42 318 -163 640 -342 907 -327 490 -810
807 -1383 909 -131 24 -433 33 -565 19z m706 -1335 c57 -20 104 -67 126 -124
16 -40 18 -81 18 -311 -1 -251 -2 -267 -22 -305 -48 -90 -117 -127 -235 -128
-143 0 -226 63 -249 188 -17 92 -8 520 12 565 21 46 65 89 114 111 51 24 175
25 236 4z m-1666 -14 c17 -7 41 -22 54 -34 48 -45 51 -65 51 -389 0 -345 -2
-357 -75 -393 -35 -17 -67 -20 -237 -23 l-198 -4 0 432 0 432 188 -4 c115 -3
198 -9 217 -17z m642 -396 c34 -225 62 -418 62 -428 1 -16 -9 -17 -111 -15
l-113 3 -3 55 c-4 94 -7 100 -51 100 l-38 0 -7 -80 -7 -80 -116 0 -115 0 5 33
c3 17 30 211 58 430 l53 397 160 -2 161 -3 62 -410z m323 258 c0 -90 4 -152 9
-143 5 8 28 79 52 158 l43 142 103 0 c57 0 103 -1 103 -3 0 -1 -29 -88 -64
-193 l-63 -189 68 -230 c38 -127 69 -234 69 -238 0 -4 -50 -6 -112 -5 l-111 3
-43 164 c-24 90 -45 166 -48 169 -4 3 -6 -72 -6 -166 l0 -172 -110 0 -110 0 0
430 0 430 110 0 110 0 0 -157z m1380 72 l0 -85 -65 0 -65 0 0 -345 0 -345
-110 0 -110 0 -2 343 -3 342 -67 3 -68 3 0 84 0 85 245 0 245 0 0 -85z m394
58 c3 -16 31 -197 61 -403 31 -206 58 -387 61 -402 l6 -28 -116 0 -116 0 0 34
c0 18 -3 54 -6 80 -7 46 -7 46 -45 46 l-38 0 -6 -57 c-3 -32 -7 -67 -8 -78 -2
-19 -10 -20 -114 -23 -101 -2 -113 -1 -113 14 0 10 25 201 55 426 30 225 55
411 55 413 0 3 72 5 159 5 l159 0 6 -27z m-3196 -405 c-3 -7 -24 -15 -49 -18
l-44 -5 -3 -532 -2 -533 302 -2 c280 -3 303 -4 306 -21 3 -16 -15 -17 -320
-15 l-323 3 -3 568 -2 567 71 0 c52 0 70 -3 67 -12z m3452 -558 l0 -570 -317
2 c-275 3 -318 5 -318 18 0 13 41 15 303 18 l302 2 -2 533 -3 532 -44 5 c-73
8 -64 30 13 30 l66 0 0 -570z m-2531 20 c-114 -9 -175 -33 -237 -93 -53 -51
-72 -85 -72 -130 0 -40 33 -81 82 -102 18 -8 27 -14 20 -15 -22 0 -69 28 -91
56 -25 32 -28 101 -7 142 49 94 174 151 326 150 l75 -1 -96 -7z m401 -41 c-92
-18 -207 -90 -354 -221 -66 -59 -68 -63 -45 -69 22 -7 22 -7 -6 -8 -24 -1 -45
-16 -96 -68 -88 -90 -119 -138 -119 -185 0 -28 6 -42 26 -57 15 -12 21 -21 15
-21 -7 0 -23 12 -36 26 -49 53 -25 147 62 244 l45 50 -39 2 -38 1 39 4 c30 3
55 19 114 69 158 135 358 243 447 242 23 0 19 -2 -15 -9z m98 -1 c40 -40 -21
-121 -139 -183 -37 -19 -71 -35 -75 -35 -5 1 21 17 58 36 128 65 197 159 136
184 -14 5 -17 9 -7 9 8 1 20 -4 27 -11z m-238 -227 c-8 -5 -26 -11 -40 -15
-21 -5 -20 -3 5 9 32 15 60 20 35 6z m-85 -31 c-11 -5 -27 -9 -35 -9 -9 0 -8
4 5 9 11 5 27 9 35 9 9 0 8 -4 -5 -9z m-58 -16 c-3 -3 -12 -4 -19 -1 -8 3 -5
6 6 6 11 1 17 -2 13 -5z m-44 -11 c-7 -2 -21 -2 -30 0 -10 3 -4 5 12 5 17 0
24 -2 18 -5z m380 -57 c3 -12 -30 -32 -39 -24 -11 12 5 40 21 36 9 -2 17 -7
18 -12z m-290 -47 c24 -13 37 -28 37 -44 0 -5 -7 0 -15 13 -9 12 -30 26 -48
31 -18 5 -24 10 -14 10 10 1 28 -4 40 -10z m-76 -5 c-3 -3 -12 -4 -19 -1 -8 3
-5 6 6 6 11 1 17 -2 13 -5z m-92 -37 c-33 -17 -84 -55 -112 -84 -29 -28 -53
-48 -53 -44 0 25 181 162 214 161 6 0 -16 -15 -49 -33z m375 -15 c0 -4 -36
-43 -80 -87 -44 -44 -80 -83 -80 -87 0 -3 10 -9 23 -11 l22 -4 -23 -2 c-32 -2
-38 24 -17 67 10 21 19 40 19 44 1 4 8 13 16 20 12 11 12 10 0 -7 -7 -11 7 1
32 28 26 28 54 47 66 47 12 0 22 -3 22 -8z m187 -8 c3 -8 0 -27 -6 -41 -11
-25 -11 -25 6 -13 10 7 -13 -17 -52 -53 -46 -44 -78 -66 -95 -67 -21 0 -15 10
53 78 42 42 77 83 77 90 0 29 -49 4 -160 -80 -48 -37 -55 -40 -25 -12 54 50
154 114 177 114 10 0 21 -7 25 -16z m151 -18 c3 -24 -6 -38 -52 -82 -57 -53
-68 -74 -41 -74 28 0 75 30 135 85 58 53 144 105 175 105 30 0 30 -32 -1 -57
-16 -12 -33 -23 -39 -23 -5 0 2 8 17 17 28 18 43 41 33 51 -9 9 -71 -27 -97
-56 l-23 -25 30 7 c25 5 27 4 12 -5 -10 -6 -24 -8 -31 -6 -19 8 -80 -58 -73
-77 13 -32 82 -12 171 50 47 32 48 33 16 4 -49 -43 -132 -82 -167 -78 -23 2
-29 8 -31 34 l-3 32 -51 -34 c-57 -39 -94 -44 -103 -14 -8 27 5 48 64 102 57
52 61 64 29 71 -20 5 -20 5 2 4 20 -2 26 -8 28 -31z m391 31 c-2 -2 -17 -11
-34 -21 l-30 -17 24 20 c13 12 28 21 34 21 6 0 8 -1 6 -3z m38 -35 c-3 -32
-13 -47 -65 -95 -36 -33 -71 -57 -84 -57 -17 0 -7 15 55 79 42 43 77 86 77 95
0 9 5 16 11 16 6 0 9 -16 6 -38z m163 17 c0 -11 -5 -30 -12 -42 -10 -20 -10
-21 8 -8 10 7 -12 -16 -51 -53 -87 -82 -135 -93 -59 -13 72 75 105 117 98 128
-3 5 0 9 5 9 6 0 11 -9 11 -21z m158 -12 c3 -22 -8 -38 -59 -87 -43 -40 -58
-61 -48 -64 42 -13 43 -14 23 -15 -28 -1 -47 23 -40 47 4 11 31 43 62 71 52
49 61 71 28 71 -8 0 -28 -7 -44 -15 -38 -20 -40 -11 -2 10 42 23 76 16 80 -18z
m266 24 c4 -5 -2 -7 -13 -4 -28 7 -89 -29 -148 -87 -77 -76 -67 -118 17 -70
l35 21 -24 -21 c-50 -43 -101 -34 -101 17 0 22 -2 24 -17 13 -10 -7 5 9 32 35
75 71 201 126 219 96z m7 -76 c-76 -80 -90 -105 -56 -105 11 0 57 31 123 83 6
5 12 7 12 4 0 -12 -123 -97 -140 -97 -22 0 -31 20 -23 52 6 21 5 22 -13 9 -10
-7 5 8 34 34 28 26 52 53 52 61 0 8 6 14 14 14 8 0 16 7 20 15 3 8 17 15 32
15 25 0 20 -7 -55 -85z m-1121 51 c0 -2 -8 -10 -17 -17 -16 -13 -17 -12 -4 4
13 16 21 21 21 13z m420 -9 c0 -2 -12 -14 -27 -28 l-28 -24 24 28 c23 25 31
32 31 24z m-871 -43 c-13 -14 -33 -30 -44 -36 -11 -6 -2 6 20 25 47 43 58 48
24 11z m-69 -49 c0 -6 -56 -35 -67 -35 -4 1 8 9 27 20 39 22 40 22 40 15z
m220 -19 c0 -2 -8 -10 -17 -17 -16 -13 -17 -12 -4 4 13 16 21 21 21 13z m-333
-32 c-3 -3 -12 -4 -19 -1 -8 3 -5 6 6 6 11 1 17 -2 13 -5z m-59 -11 c-16 -2
-40 -2 -55 0 -16 2 -3 4 27 4 30 0 43 -2 28 -4z"/>
<path d="M2909 3183 c-11 -13 -14 -72 -14 -289 0 -288 4 -312 43 -288 15 10
17 39 20 289 2 269 -1 305 -28 305 -4 0 -14 -7 -21 -17z"/>
<path d="M1190 2900 c0 -260 1 -280 18 -280 46 1 47 4 50 276 3 272 1 284 -44
284 l-24 0 0 -280z"/>
<path d="M1797 3090 c-7 -27 -37 -266 -37 -293 0 -13 9 -17 40 -17 l39 0 -5
48 c-3 26 -11 101 -18 167 -8 75 -15 111 -19 95z"/>
<path d="M3941 3012 c-6 -48 -14 -120 -17 -159 l-7 -73 38 0 38 0 -7 73 c-3
39 -9 109 -13 155 -3 45 -9 85 -13 87 -4 3 -12 -35 -19 -83z"/>
</g>
</svg>
